# xmcd
#
# Track frame offsets: 
#        150
#        37258
#        50735
#        61625
#        84380
#        97843
#        126413
#        140605
#        145515
#        164693
#        185098
#        203780
#        223543
#        246738
#        255070
#        268290
#        283755
#        300065
#
# Disc length: 4336 seconds
#
# Revision: 0
# Processed by: cddbd v1.5.2PL0 Copyright (c) Steve Scherf et al.
# Submitted via: ExactAudioCopy v1.3
#
DISCID=0f10ee12
DTITLE=Various Artist - Blues For Bosnia
DYEAR=1995
DGENRE=Blues
TTITLE0=Bintangs - Ain't Nothing To Me
TTITLE1=The Juke Joints - I'm Working On It
TTITLE2=Louisiana Radio - Another Man Bin Gone
TTITLE3=Rollercoaster 69 - Yesterday Is Gone
TTITLE4=Trouble No More - Parchman Farm
TTITLE5=Blues Power - 200 Miles
TTITLE6=Baton Rouge - Hostile Country
TTITLE7=Pigmeat - Meeting At The Building
TTITLE8=Claw Boys Claw - Mother
TTITLE9=Attila - See No Evil, Hear No Evil, Speak No Evil
TTITLE10=Erny Green - Turn Me On
TTITLE11=Moguls - Amparo
TTITLE12=The Martin Hutchinson Band - Killing Grounds
TTITLE13=The Bob Color - The Right Track
TTITLE14=The Millstreet Blues Band - Come On
TTITLE15=The Blazing Aces - Everybody Makes Mistakes
TTITLE16=De Banguh Mannuh - Bourgeois Blues
TTITLE17=The Mercy Seat - The Rain
EXTD=
EXTT0=
EXTT1=
EXTT2=
EXTT3=
EXTT4=
EXTT5=
EXTT6=
EXTT7=
EXTT8=
EXTT9=
EXTT10=
EXTT11=
EXTT12=
EXTT13=
EXTT14=
EXTT15=
EXTT16=
EXTT17=
PLAYORDER=
